<mxfile host="Electron" modified="2023-09-25T17:16:42.881Z" agent="Mozilla/5.0 (Macintosh; Intel Mac OS X 10_15_7) AppleWebKit/537.36 (KHTML, like Gecko) draw.io/21.7.5 Chrome/114.0.5735.289 Electron/25.8.1 Safari/537.36" etag="AIs-dTs8F2lSxzw6Se39" version="21.7.5" type="device">
  <diagram name="Page-1" id="AkBH5rWUtdGwlVYRP-Na">
    <mxGraphModel dx="1026" dy="743" grid="1" gridSize="10" guides="1" tooltips="1" connect="1" arrows="1" fold="1" page="1" pageScale="1" pageWidth="827" pageHeight="1169" math="0" shadow="0">
      <root>
        <mxCell id="0" />
        <mxCell id="1" parent="0" />
        <mxCell id="ihWQYlzwukCFDOgHnnIs-2" value="&lt;b&gt;&lt;font style=&quot;font-size: 14px;&quot;&gt;Step 1: Feature Weight Ranges&lt;/font&gt;&lt;/b&gt;" style="rounded=1;whiteSpace=wrap;html=1;labelPosition=center;verticalLabelPosition=top;align=center;verticalAlign=bottom;fillColor=#fff2cc;strokeColor=#d6b656;" parent="1" vertex="1">
          <mxGeometry x="244" y="40" width="340" height="300" as="geometry" />
        </mxCell>
        <mxCell id="BaJBtz9wntZjQThfsi36-2" style="edgeStyle=orthogonalEdgeStyle;rounded=0;orthogonalLoop=1;jettySize=auto;html=1;" parent="1" source="ihWQYlzwukCFDOgHnnIs-32" edge="1">
          <mxGeometry relative="1" as="geometry">
            <mxPoint x="530" y="670" as="targetPoint" />
          </mxGeometry>
        </mxCell>
        <mxCell id="ihWQYlzwukCFDOgHnnIs-32" value="&lt;b&gt;Selected Candidates&lt;/b&gt;" style="rounded=1;whiteSpace=wrap;html=1;labelPosition=center;verticalLabelPosition=top;align=center;verticalAlign=bottom;fillColor=#f8cecc;strokeColor=#b85450;" parent="1" vertex="1">
          <mxGeometry x="570" y="580" width="250" height="40" as="geometry" />
        </mxCell>
        <mxCell id="ihWQYlzwukCFDOgHnnIs-17" value="" style="edgeStyle=orthogonalEdgeStyle;rounded=0;orthogonalLoop=1;jettySize=auto;html=1;" parent="1" source="ihWQYlzwukCFDOgHnnIs-3" target="ihWQYlzwukCFDOgHnnIs-4" edge="1">
          <mxGeometry relative="1" as="geometry" />
        </mxCell>
        <mxCell id="ihWQYlzwukCFDOgHnnIs-3" value="&lt;font style=&quot;font-size: 14px;&quot;&gt;Initialize Weight Ranges&lt;/font&gt;" style="rounded=0;whiteSpace=wrap;html=1;" parent="1" vertex="1">
          <mxGeometry x="295" y="60" width="226" height="30" as="geometry" />
        </mxCell>
        <mxCell id="ihWQYlzwukCFDOgHnnIs-19" value="" style="edgeStyle=orthogonalEdgeStyle;rounded=0;orthogonalLoop=1;jettySize=auto;html=1;" parent="1" source="ihWQYlzwukCFDOgHnnIs-4" target="ihWQYlzwukCFDOgHnnIs-18" edge="1">
          <mxGeometry relative="1" as="geometry" />
        </mxCell>
        <mxCell id="ihWQYlzwukCFDOgHnnIs-4" value="&lt;font style=&quot;font-size: 14px;&quot;&gt;Sample &amp;amp; Evaluate&lt;/font&gt;" style="whiteSpace=wrap;html=1;rounded=0;" parent="1" vertex="1">
          <mxGeometry x="293" y="120" width="230" height="30" as="geometry" />
        </mxCell>
        <mxCell id="ihWQYlzwukCFDOgHnnIs-11" value="&lt;b&gt;&lt;font style=&quot;font-size: 14px;&quot;&gt;Step 2: Feature Weight Candidates&lt;/font&gt;&lt;/b&gt;" style="rounded=1;whiteSpace=wrap;html=1;labelPosition=center;verticalLabelPosition=top;align=center;verticalAlign=bottom;fillColor=#fff2cc;strokeColor=#d6b656;" parent="1" vertex="1">
          <mxGeometry x="244" y="410" width="337" height="130" as="geometry" />
        </mxCell>
        <mxCell id="ihWQYlzwukCFDOgHnnIs-14" value="&lt;b&gt;&lt;font style=&quot;font-size: 14px;&quot;&gt;Step 3: Evaluation&lt;/font&gt;&lt;/b&gt;" style="rounded=1;whiteSpace=wrap;html=1;labelPosition=center;verticalLabelPosition=top;align=center;verticalAlign=bottom;fillColor=#d5e8d4;strokeColor=#82b366;" parent="1" vertex="1">
          <mxGeometry x="244" y="670" width="337" height="130" as="geometry" />
        </mxCell>
        <mxCell id="ihWQYlzwukCFDOgHnnIs-27" value="" style="edgeStyle=orthogonalEdgeStyle;rounded=0;orthogonalLoop=1;jettySize=auto;html=1;" parent="1" source="ihWQYlzwukCFDOgHnnIs-15" target="ihWQYlzwukCFDOgHnnIs-16" edge="1">
          <mxGeometry relative="1" as="geometry" />
        </mxCell>
        <mxCell id="ihWQYlzwukCFDOgHnnIs-15" value="&lt;font style=&quot;font-size: 14px;&quot;&gt;Construct Evaluation Dataset&lt;/font&gt;" style="whiteSpace=wrap;html=1;rounded=0;" parent="1" vertex="1">
          <mxGeometry x="310" y="690" width="216" height="30" as="geometry" />
        </mxCell>
        <mxCell id="ihWQYlzwukCFDOgHnnIs-16" value="&lt;font style=&quot;font-size: 14px;&quot;&gt;Exhaustive Evaluation&lt;/font&gt;" style="whiteSpace=wrap;html=1;rounded=0;" parent="1" vertex="1">
          <mxGeometry x="310" y="750" width="216" height="30" as="geometry" />
        </mxCell>
        <mxCell id="ihWQYlzwukCFDOgHnnIs-21" value="" style="edgeStyle=orthogonalEdgeStyle;rounded=0;orthogonalLoop=1;jettySize=auto;html=1;" parent="1" source="ihWQYlzwukCFDOgHnnIs-18" target="ihWQYlzwukCFDOgHnnIs-20" edge="1">
          <mxGeometry relative="1" as="geometry" />
        </mxCell>
        <mxCell id="ihWQYlzwukCFDOgHnnIs-18" value="&lt;font style=&quot;font-size: 14px;&quot;&gt;Pick Top 20 Weights&lt;/font&gt;" style="whiteSpace=wrap;html=1;rounded=0;" parent="1" vertex="1">
          <mxGeometry x="293" y="180" width="230" height="30" as="geometry" />
        </mxCell>
        <mxCell id="ihWQYlzwukCFDOgHnnIs-23" style="edgeStyle=orthogonalEdgeStyle;rounded=0;orthogonalLoop=1;jettySize=auto;html=1;entryX=0;entryY=0.5;entryDx=0;entryDy=0;" parent="1" source="ihWQYlzwukCFDOgHnnIs-20" target="ihWQYlzwukCFDOgHnnIs-4" edge="1">
          <mxGeometry relative="1" as="geometry">
            <mxPoint x="524" y="135" as="targetPoint" />
            <Array as="points">
              <mxPoint x="408" y="290" />
              <mxPoint x="260" y="290" />
              <mxPoint x="260" y="135" />
            </Array>
          </mxGeometry>
        </mxCell>
        <mxCell id="ihWQYlzwukCFDOgHnnIs-40" value="&lt;font style=&quot;font-size: 12px;&quot;&gt;Yes&lt;/font&gt;" style="edgeLabel;html=1;align=center;verticalAlign=top;resizable=0;points=[];labelPosition=center;verticalLabelPosition=bottom;spacingLeft=-10;labelBackgroundColor=#FFF2CC;" parent="ihWQYlzwukCFDOgHnnIs-23" vertex="1" connectable="0">
          <mxGeometry x="-0.3716" y="3" relative="1" as="geometry">
            <mxPoint x="54" y="-6" as="offset" />
          </mxGeometry>
        </mxCell>
        <mxCell id="ihWQYlzwukCFDOgHnnIs-44" value="&lt;font style=&quot;font-size: 12px;&quot;&gt;No&lt;/font&gt;" style="edgeLabel;html=1;align=center;verticalAlign=top;resizable=0;points=[];labelPosition=center;verticalLabelPosition=bottom;spacingLeft=-18;labelBackgroundColor=#FFF2CC;" parent="ihWQYlzwukCFDOgHnnIs-23" vertex="1" connectable="0">
          <mxGeometry x="-0.3716" y="3" relative="1" as="geometry">
            <mxPoint x="144" y="-7" as="offset" />
          </mxGeometry>
        </mxCell>
        <mxCell id="1q1e2wgyP8cDe4v2qvdC-1" value="&lt;font style=&quot;font-size: 12px;&quot;&gt;&lt;b&gt;Adjust Ranges&lt;/b&gt;&lt;/font&gt;" style="edgeLabel;html=1;align=center;verticalAlign=top;resizable=0;points=[];labelPosition=center;verticalLabelPosition=bottom;spacingLeft=-10;labelBackgroundColor=#FFF2CC;rotation=270;" parent="ihWQYlzwukCFDOgHnnIs-23" vertex="1" connectable="0">
          <mxGeometry x="-0.3716" y="3" relative="1" as="geometry">
            <mxPoint x="-61" y="-83" as="offset" />
          </mxGeometry>
        </mxCell>
        <mxCell id="ihWQYlzwukCFDOgHnnIs-39" value="" style="edgeStyle=orthogonalEdgeStyle;rounded=0;orthogonalLoop=1;jettySize=auto;html=1;entryX=0.1;entryY=0;entryDx=0;entryDy=0;entryPerimeter=0;" parent="1" target="2yFFmuJsb6fYRjsFtPrd-1" edge="1">
          <mxGeometry relative="1" as="geometry">
            <mxPoint x="408" y="320" as="targetPoint" />
            <mxPoint x="408" y="290" as="sourcePoint" />
          </mxGeometry>
        </mxCell>
        <mxCell id="ihWQYlzwukCFDOgHnnIs-26" value="" style="edgeStyle=orthogonalEdgeStyle;rounded=0;orthogonalLoop=1;jettySize=auto;html=1;" parent="1" source="ihWQYlzwukCFDOgHnnIs-24" target="ihWQYlzwukCFDOgHnnIs-25" edge="1">
          <mxGeometry relative="1" as="geometry" />
        </mxCell>
        <mxCell id="ihWQYlzwukCFDOgHnnIs-24" value="&lt;font style=&quot;font-size: 14px;&quot;&gt;Sample &amp;amp; Evaluate&lt;/font&gt;" style="whiteSpace=wrap;html=1;rounded=0;" parent="1" vertex="1">
          <mxGeometry x="293" y="430" width="230" height="30" as="geometry" />
        </mxCell>
        <mxCell id="ihWQYlzwukCFDOgHnnIs-45" style="edgeStyle=orthogonalEdgeStyle;rounded=0;orthogonalLoop=1;jettySize=auto;html=1;entryX=0.121;entryY=0.013;entryDx=0;entryDy=0;entryPerimeter=0;" parent="1" source="ihWQYlzwukCFDOgHnnIs-25" target="ihWQYlzwukCFDOgHnnIs-32" edge="1">
          <mxGeometry relative="1" as="geometry" />
        </mxCell>
        <mxCell id="ihWQYlzwukCFDOgHnnIs-25" value="&lt;font style=&quot;font-size: 14px;&quot;&gt;Pick Top 10 Weights&lt;/font&gt;" style="whiteSpace=wrap;html=1;rounded=0;" parent="1" vertex="1">
          <mxGeometry x="293" y="490" width="230" height="30" as="geometry" />
        </mxCell>
        <mxCell id="ihWQYlzwukCFDOgHnnIs-33" value="&lt;font style=&quot;font-size: 14px;&quot;&gt;[10,13,19,65,14], ..., [9,12,13,68,95]&lt;/font&gt;" style="text;html=1;strokeColor=none;fillColor=none;align=center;verticalAlign=middle;whiteSpace=wrap;rounded=0;" parent="1" vertex="1">
          <mxGeometry x="581" y="585" width="229" height="30" as="geometry" />
        </mxCell>
        <mxCell id="ihWQYlzwukCFDOgHnnIs-34" value="&lt;b&gt;Baseline Candidates&lt;/b&gt;" style="rounded=1;whiteSpace=wrap;html=1;labelPosition=center;verticalLabelPosition=top;align=center;verticalAlign=bottom;fillColor=#f8cecc;strokeColor=#b85450;" parent="1" vertex="1">
          <mxGeometry x="41" y="580" width="190" height="40" as="geometry" />
        </mxCell>
        <mxCell id="ihWQYlzwukCFDOgHnnIs-36" style="edgeStyle=orthogonalEdgeStyle;rounded=0;orthogonalLoop=1;jettySize=auto;html=1;entryX=0.228;entryY=-0.004;entryDx=0;entryDy=0;entryPerimeter=0;" parent="1" target="ihWQYlzwukCFDOgHnnIs-14" edge="1">
          <mxGeometry relative="1" as="geometry">
            <mxPoint x="231" y="600" as="sourcePoint" />
          </mxGeometry>
        </mxCell>
        <mxCell id="ihWQYlzwukCFDOgHnnIs-35" value="&lt;font style=&quot;font-size: 14px;&quot;&gt;[1,0,0,0,0], ..., [1,1,1,1,1]&lt;/font&gt;" style="text;html=1;strokeColor=none;fillColor=none;align=center;verticalAlign=middle;whiteSpace=wrap;rounded=0;" parent="1" vertex="1">
          <mxGeometry x="51" y="585" width="170" height="30" as="geometry" />
        </mxCell>
        <mxCell id="ihWQYlzwukCFDOgHnnIs-20" value="&lt;font style=&quot;font-size: 14px;&quot;&gt;Any Weights on Boundary?&lt;/font&gt;" style="whiteSpace=wrap;html=1;rounded=0;" parent="1" vertex="1">
          <mxGeometry x="293" y="240" width="230" height="30" as="geometry" />
        </mxCell>
        <mxCell id="ihWQYlzwukCFDOgHnnIs-46" value="" style="labelPosition=right;align=left;strokeWidth=1;shape=mxgraph.mockup.markup.curlyBrace;html=1;shadow=0;dashed=0;strokeColor=#999999;direction=north;fontStyle=1" parent="1" vertex="1">
          <mxGeometry x="200" y="40" width="20" height="500" as="geometry" />
        </mxCell>
        <mxCell id="ihWQYlzwukCFDOgHnnIs-47" value="" style="labelPosition=right;align=left;strokeWidth=1;shape=mxgraph.mockup.markup.curlyBrace;html=1;shadow=0;dashed=0;strokeColor=#999999;direction=north;fontStyle=1" parent="1" vertex="1">
          <mxGeometry x="201" y="670" width="20" height="130" as="geometry" />
        </mxCell>
        <mxCell id="ihWQYlzwukCFDOgHnnIs-48" value="&lt;b&gt;&lt;font style=&quot;font-size: 13px;&quot;&gt;Test Set&lt;/font&gt;&lt;/b&gt;" style="text;html=1;strokeColor=none;fillColor=none;align=center;verticalAlign=middle;whiteSpace=wrap;rounded=0;" parent="1" vertex="1">
          <mxGeometry x="131" y="720" width="60" height="30" as="geometry" />
        </mxCell>
        <mxCell id="ihWQYlzwukCFDOgHnnIs-49" value="&lt;b&gt;&lt;font style=&quot;font-size: 13px;&quot;&gt;Validation Set&lt;/font&gt;&lt;/b&gt;" style="text;html=1;strokeColor=none;fillColor=none;align=center;verticalAlign=middle;whiteSpace=wrap;rounded=0;" parent="1" vertex="1">
          <mxGeometry x="101" y="275" width="90" height="30" as="geometry" />
        </mxCell>
        <mxCell id="BaJBtz9wntZjQThfsi36-1" style="edgeStyle=orthogonalEdgeStyle;rounded=0;orthogonalLoop=1;jettySize=auto;html=1;entryX=0.936;entryY=-0.007;entryDx=0;entryDy=0;entryPerimeter=0;" parent="1" source="2yFFmuJsb6fYRjsFtPrd-1" target="ihWQYlzwukCFDOgHnnIs-11" edge="1">
          <mxGeometry relative="1" as="geometry" />
        </mxCell>
        <mxCell id="2yFFmuJsb6fYRjsFtPrd-1" value="&lt;b&gt;Selected Ranges&lt;/b&gt;" style="rounded=1;whiteSpace=wrap;html=1;labelPosition=center;verticalLabelPosition=top;align=center;verticalAlign=bottom;fillColor=#ffe6cc;strokeColor=#d79b00;" parent="1" vertex="1">
          <mxGeometry x="586" y="340" width="154" height="40" as="geometry" />
        </mxCell>
        <mxCell id="2yFFmuJsb6fYRjsFtPrd-2" value="&lt;font style=&quot;font-size: 14px;&quot;&gt;[0,20], ..., [0,100]&lt;/font&gt;" style="text;html=1;strokeColor=none;fillColor=none;align=center;verticalAlign=middle;whiteSpace=wrap;rounded=0;" parent="1" vertex="1">
          <mxGeometry x="594" y="345" width="138" height="30" as="geometry" />
        </mxCell>
      </root>
    </mxGraphModel>
  </diagram>
</mxfile>
